Coordinates
version=1
nRows=7
nColumns=40
inDegrees=yes

Units are S.I. units (second, meters, Newtons, ...)
Angles are in degrees.

endheader
time	pelvis_tilt	pelvis_list	pelvis_rotation	pelvis_tx	pelvis_ty	pelvis_tz	hip_flexion_r	hip_adduction_r	hip_rotation_r	knee_angle_r	knee_angle_r_beta	ankle_angle_r	subtalar_angle_r	mtp_angle_r	hip_flexion_l	hip_adduction_l	hip_rotation_l	knee_angle_l	knee_angle_l_beta	ankle_angle_l	subtalar_angle_l	mtp_angle_l	lumbar_extension	lumbar_bending	lumbar_rotation	arm_flex_r	arm_add_r	arm_rot_r	elbow_flex_r	pro_sup_r	wrist_flex_r	wrist_dev_r	arm_flex_l	arm_add_l	arm_rot_l	elbow_flex_l	pro_sup_l	wrist_flex_l	wrist_dev_l
      7.76750000	     -2.60095178	     -3.33162874	     -0.76891618	      1.04562792	      0.93038655	      0.48688057	     17.06557672	     -0.29778116	     -9.80356760	     21.83415878	     21.83415878	      8.58236699	     -4.53250336	     -0.83248252	      0.55541406	     -9.34630363	    -11.47779729	     26.02143936	     26.02143936	     18.16628983	     -0.97195303	     -4.50041884	     -9.00006108	      1.88342345	     -0.74333933	     -0.40673354	    -13.63158256	     -4.63789507	     42.83496841	     45.63682946	      0.00000000	      0.00000000	     12.25552291	    -12.72448212	     -8.21402165	     61.50276533	     47.24941527	      0.00000000	      0.00000000
      7.78114286	     -2.67702531	     -3.41578193	     -0.33233741	      1.04561513	      0.93108510	      0.49018706	     16.43227896	     -0.06633383	    -10.48783965	     21.29925310	     21.29925310	      8.78861240	     -4.03939759	     -0.86420404	      1.99169783	     -9.98339270	    -10.26949107	     28.86079517	     28.86079517	     17.02811855	     -2.31054333	     -5.45054128	     -8.89360016	      2.02442619	     -0.85913344	      0.94879867	    -13.75078647	     -4.60421455	     44.32385145	     45.58705184	      0.00000000	      0.00000000	     11.63959412	    -12.67746062	     -8.03560165	     60.67878924	     47.21934598	      0.00000000	      0.00000000
      7.79478571	     -2.71788835	     -3.38730808	      0.08595245	      1.04533811	      0.93165051	      0.49329433	     15.85467617	     -0.02652534	    -11.33479273	     20.91404537	     20.91404537	      9.04001291	     -3.16310484	     -1.12733885	      3.38329408	    -10.26458562	     -8.60766208	     31.39769017	     31.39769017	     14.07202605	     -5.23310763	     -9.80040404	     -8.90347542	      2.04952826	     -0.44453581	      1.19516731	    -14.48679001	     -3.60550475	     48.42150397	     45.39454473	      0.00000000	      0.00000000	     11.70779715	    -12.36690901	     -7.58709142	     58.86925258	     47.16130958	      0.00000000	      0.00000000
      7.80842857	     -2.69817898	     -3.56731396	      0.52896591	      1.04479511	      0.93211588	      0.49656547	     15.21123629	      0.34055304	    -11.92647382	     20.46187907	     20.46187907	      9.21001073	     -2.89093998	     -1.12959725	      5.15115900	    -10.99200343	     -7.37504741	     34.86885223	     34.86885223	     12.85190575	     -6.36976121	    -10.19169374	     -9.00879067	      2.24345986	     -0.37801176	      2.93378833	    -14.61075088	     -3.75006533	     49.32236275	     45.37931633	      0.00000000	      0.00000000	     11.22449050	    -12.28331005	     -7.37378963	     58.22549429	     47.13137242	      0.00000000	      0.00000000
      7.82207143	     -2.95232902	     -3.63367977	      1.01552910	      1.04389053	      0.93206919	      0.49944953	     14.92358249	      0.52161179	    -12.58108990	     20.08466050	     20.08466050	      9.42013907	     -2.39592678	     -1.26523678	      7.39114603	    -11.33165957	     -5.62080550	     38.41694534	     38.41694534	     11.30334936	     -8.22641108	    -10.33041647	     -8.79070456	      2.39477477	     -0.73199208	      4.59537290	    -14.66022470	     -3.78954792	     50.79715065	     45.33921044	      0.00000000	      0.00000000	     10.52063921	    -12.31769526	     -7.12982051	     56.86444739	     47.08759954	      0.00000000	      0.00000000
      7.83571429	     -2.95193764	     -3.78186367	      1.49035810	      1.04290637	      0.93211123	      0.50231206	     14.42050541	      0.81486355	    -13.21567955	     19.79639890	     19.79639890	      9.69900784	     -2.13732400	     -1.37995846	      9.39255830	    -11.76430735	     -4.13667016	     41.94070108	     41.94070108	      9.90560931	     -9.65350800	    -10.18706624	     -8.88541850	      2.52600682	     -0.61457026	      6.27697221	    -14.91413817	     -3.81300538	     52.02986067	     45.30685167	      0.00000000	      0.00000000	     10.07586454	    -12.10566369	     -6.94435047	     55.84262445	     47.05490761	      0.00000000	      0.00000000
      7.84935714	     -3.05369037	     -3.80564073	      1.98196224	      1.04160157	      0.93196854	      0.50473661	     14.11304145	      0.89556663	    -13.92311325	     19.63967610	     19.63967610	      9.89950740	     -1.67041069	     -1.77501424	     11.61926049	    -11.81479897	     -2.41140460	     45.50888140	     45.50888140	      9.19788365	    -11.01444063	     -7.76101771	     -8.86955221	      2.65495231	     -0.22698922	      7.17128388	    -15.68912864	     -3.07839391	     55.12588693	     45.18935534	      0.00000000	      0.00000000	     10.54087278	    -11.62909446	     -6.67338761	     52.64684267	     46.99205341	      0.00000000	      0.00000000
